<?xml version="1.0" encoding="UTF-8" standalone="no"?>
<svg
   xmlns:dc="http://purl.org/dc/elements/1.1/"
   xmlns:cc="http://creativecommons.org/ns#"
   xmlns:rdf="http://www.w3.org/1999/02/22-rdf-syntax-ns#"
   xmlns:svg="http://www.w3.org/2000/svg"
   xmlns="http://www.w3.org/2000/svg"
   id="svg5340"
   version="1.1"
   width="64"
   height="64">
  <metadata
     id="metadata5346">
    <rdf:RDF>
      <cc:Work
         rdf:about="">
        <dc:format>image/svg+xml</dc:format>
        <dc:type
           rdf:resource="http://purl.org/dc/dcmitype/StillImage" />
        <dc:title></dc:title>
      </cc:Work>
    </rdf:RDF>
  </metadata>
  <defs
     id="defs5344" />
  <g
     id="g5924">
    <circle
       style="fill:#ffffff;fill-opacity:1;stroke:none;stroke-width:0.09826422;stroke-linecap:square;stroke-linejoin:round;stroke-miterlimit:4;stroke-dasharray:none;stroke-dashoffset:2.52574182;stroke-opacity:1;paint-order:markers fill stroke"
       id="path5916"
       cx="32"
       cy="32"
       r="32" />
    <path
       style="fill:#f7931a;stroke-width:1.00028944"
       d="M 32.181734,5.4808287e-4 C 17.132224,-0.086662 4.4562756,10.237859 0.96168045,24.216042 c 1.19203245,-1.5e-5 2.36748315,7.2e-5 3.59848175,0 2.1062371,1.22e-4 4.6260489,2.22e-4 7.1207748,0 0.636322,-0.12025 1.372926,-0.533036 1.373362,-1.803364 0.04254,0.03849 -0.002,-2.27814 -0.002,-2.27814 h 3.348425 l -0.002,4.32573 h -0.01563 c 4.41e-4,0.650194 0.01349,1.315835 0.02735,1.994838 h 2.016088 2.016087 c 0.01385,-0.679003 0.02692,-1.344644 0.02735,-1.994838 h -0.01563 l -0.002,-4.32573 h 3.348424 c 0,0 -0.04454,2.316643 -0.002,2.27814 4.36e-4,1.270328 0.738993,1.683114 1.375315,1.803364 2.369095,2.66e-4 4.683556,1.42e-4 7.118821,0 2.106238,1.22e-4 4.624095,2.22e-4 7.118821,0 0.636322,-0.12025 1.374878,-0.533036 1.375315,-1.803364 0.04253,0.03849 -0.002,-2.27814 -0.002,-2.27814 h 3.348424 l -0.002,4.32573 h -0.01563 c 4.4e-4,0.650194 0.01349,1.315835 0.02735,1.994838 h 2.016088 2.016087 c 0.01385,-0.679003 0.02692,-1.344644 0.02735,-1.994838 h -0.01563 l -0.002,-4.32573 h 3.348424 c 0,0 -0.04454,2.316643 -0.002,2.27814 4.36e-4,1.270328 0.737041,1.683114 1.373362,1.803364 2.369096,2.66e-4 4.685508,1.42e-4 7.120774,0 0.89359,5.2e-5 2.011564,-2.1e-5 3.020223,0 C 59.586926,10.374504 47.107179,0.08314685 32.181734,5.4808287e-4 Z M 18.426625,29.590967 l -1.914502,0.002 c 0.01667,0.836739 0.03315,1.678922 0.03321,2.502828 h 3.764538 c 6e-5,-0.823906 0.01458,-1.666089 0.03126,-2.502828 z m 27.732925,0 -1.914502,0.002 c 0.01667,0.836739 0.0312,1.678922 0.03126,2.502828 h 3.764534 c 6e-5,-0.823906 0.01653,-1.666089 0.03321,-2.502828 z M 0.09234038,29.665212 C 0.04098619,30.376357 0.00467343,31.091037 5.2245109e-4,31.814401 -0.00918802,33.518741 0.11663183,35.192212 0.36388706,36.825918 2.8811248,35.909769 2.5556955,31.258911 2.5557961,29.665212 Z m 6.47218792,0 c 1.118e-4,1.770427 -0.4129081,7.329687 3.1296243,7.330687 3.6949214,-3.35e-4 3.1316864,-5.56026 3.1315774,-7.330687 z m 17.4629907,0 c -1.09e-4,1.770427 -0.563344,7.330352 3.131578,7.330687 3.542531,-0.001 3.129512,-5.56026 3.129624,-7.330687 z m 10.269934,0 c 1.12e-4,1.770427 -0.412908,7.329687 3.129624,7.330687 3.694921,-3.35e-4 3.131688,-5.56026 3.131579,-7.330687 z m 17.46299,0 c -1.09e-4,1.770427 -0.563342,7.330352 3.131579,7.330687 3.542533,-0.001 3.129512,-5.56026 3.129624,-7.330687 z m 10.269936,0 c 9.2e-5,1.466693 -0.277887,5.526242 1.639047,6.879358 0.203196,-1.427701 0.321769,-2.884393 0.330154,-4.366761 0.0048,-0.846876 -0.03195,-1.681919 -0.09182,-2.512597 z m -45.621796,5.566399 c -0.354693,4.048295 -1.597697,7.254979 -5.311765,7.612035 -3.427941,-0.01342 -5.7318494,-1.196268 -6.5386094,-4.122535 -0.4729894,1.71562 -1.4720347,2.817784 -2.8971489,3.450425 4.2303953,12.620045 16.1055123,21.74826 30.1553553,21.827941 14.26809,0.08072 26.405436,-9.191881 30.606632,-22.06826 -1.163125,-0.660255 -1.984468,-1.699477 -2.400942,-3.210106 -0.80676,2.926267 -3.104808,4.10912 -6.532749,4.122535 -3.714068,-0.357056 -4.957072,-3.56374 -5.311765,-7.612035 h -4.036082 c -0.354695,4.048295 -1.59965,7.254979 -5.313719,7.612035 -3.427942,-0.01342 -5.731849,-1.196268 -6.53861,-4.122535 -0.806761,2.926267 -3.102854,4.10912 -6.530795,4.122535 -3.714069,-0.357056 -4.959026,-3.56374 -5.313719,-7.612035 z"
       id="path5334" />
  </g>
</svg>
